<?xml version="1.0" encoding="UTF-8"?> <svg xmlns="http://www.w3.org/2000/svg" width="766" height="454" viewBox="0 0 766 454" fill="none"> <circle cx="466" cy="141" r="125" fill="#6287C5"></circle> <path d="M695.355 157.236C683.843 151.817 671.941 146.202 664.217 140.288C651.76 130.74 632.874 115.405 616.203 101.877C604.243 92.1584 593.827 83.7078 588.742 79.7964C575.055 69.2875 561.634 66.5036 529.224 67.1103C494.841 67.8234 488.253 67.6141 480.238 66.4527C470.835 65.0777 457.089 70.3726 448.946 78.507C442.993 84.4681 431.955 92.9827 428.099 95.9167L349.703 2.86113C349.148 2.19498 348.341 1.79359 347.478 1.73812C346.714 1.76801 345.77 1.98579 345.134 2.57935C344.745 2.92523 324.615 21.5982 299.503 44.6618C291.979 38.5383 265.538 17.1534 259.385 14.2368C254.453 11.9011 246.881 3.94569 244.383 1.07625C243.525 0.0941043 242.133 -0.251729 240.895 0.188051L2.07108 88.7474C1.11028 89.1019 0.375797 89.9004 0.115296 90.8825C0.0298926 91.1985 0.29464 91.4675 0.307452 91.7878L0 91.792L0.350151 107.13C0.367233 107.873 0.644792 108.586 1.13159 109.141L302.025 452.92C302.653 453.633 303.528 454 304.408 454C305.138 454 305.868 453.748 306.466 453.24L535.877 257.126C536.599 256.507 537.005 255.602 536.988 254.65C536.966 253.702 536.522 252.809 535.775 252.224L499.512 223.824L532.876 227.428C536.454 229.302 539.759 230.635 542.471 230.908C560.396 246.553 591.168 264.416 641.62 269.715L643.289 269.895C646.791 270.296 648.887 269.771 650.587 269.344C653.269 268.703 655.327 268.169 666.514 274.4C683.633 283.939 710.331 332.628 710.595 333.115L716.163 330.083C715.98 329.75 715.083 328.119 713.721 325.731C706.603 313.254 685.312 277.619 669.602 268.862C667.445 267.662 665.857 266.923 664.179 266.116C663.141 261.573 660.878 248.933 663.893 234.069L660.165 233.313C657.457 246.666 658.756 258.08 659.909 264.246C658.376 263.666 656.911 263.166 655.754 262.944C654.229 256.09 650.489 233.061 663.077 210.848L659.768 208.978C646.948 231.601 650.027 254.344 651.808 262.722C650.869 262.816 649.968 262.961 649.041 263.192C647.589 263.555 646.351 263.824 644.007 263.593L642.273 263.41C588.823 257.794 558.214 237.763 541.403 221.511C541.365 221.49 536.894 218.735 529.69 213.756C525.01 210.528 504.159 183.267 489.286 163.069C499.547 163.923 506.832 163.176 509.881 162.736C512.388 164.765 518.703 169.129 526.987 171.691L526.82 171.751C527.269 173.019 538.149 202.841 567.267 211.382L569.044 205.306C548.448 199.264 537.897 180.723 534.314 173.1C535.885 173.297 537.341 173.706 539.007 173.706C539.4 173.706 539.797 173.698 540.19 173.685L539.989 167.361C524.796 167.903 513.061 157.138 512.938 157.031C512.186 156.352 511.144 156.049 510.162 156.267C510.008 156.288 494.589 159.329 471.798 153.846C465.705 152.377 460.009 149.648 454.876 146.335C447.591 137.939 439.644 128.784 431.326 119.207C431.202 118.596 430.95 117.883 430.985 117.409C431.488 110.658 432.996 108.446 437.693 105.696C437.377 106.136 437.125 106.328 436.758 106.866C434.238 110.559 434.144 119.33 434.136 120.313C434.136 121.039 434.546 121.705 435.195 122.021C441.288 125.036 451.827 130.07 454.415 130.07H454.483C456.717 129.976 458.954 127.564 463.809 115.265C464.672 113.071 465.137 110.03 465.351 108.343C472.136 110.479 479.797 113.25 487.978 116.628C502.382 122.567 517.985 121.56 527.285 120.936C529.249 120.812 530.872 120.706 532.072 120.706C535.527 120.706 539.588 119.237 543.516 117.823C546.224 116.85 550.793 115.265 551.852 115.581C555.789 118.395 568.22 121.713 570.67 122.345L572.263 116.222C566.635 114.762 557.727 111.994 555.532 110.431C552.129 108.002 547.141 109.791 541.368 111.871C538.114 113.036 534.425 114.369 532.076 114.369C531.829 114.369 531.363 114.411 531.081 114.42C531.705 107.912 535.001 96.8396 536.492 92.4418L532.888 91.2205C532.657 91.9038 527.853 106.213 527.119 114.612C527.02 114.616 526.978 114.616 526.88 114.625C521.076 115.013 512.647 115.393 503.855 114.159C505.944 103.787 514.014 89.8114 514.099 89.6529L510.82 87.7356C510.436 88.3889 502.241 102.596 500.081 113.647C496.827 112.989 493.56 112.084 490.391 110.773C487.39 109.535 483.341 107.933 478.866 106.285C478.64 98.0991 475.22 86.595 475.053 86.044L471.419 87.1414C471.453 87.2567 474.442 97.3643 474.976 104.905C460.889 99.952 443.812 95.2248 437.164 98.6965C435.447 99.5975 434.004 100.456 432.663 101.357L432.185 100.785C436.361 97.6077 447.245 89.1785 453.42 82.9988C460.193 76.2477 471.82 71.7174 479.323 72.7291C488.201 74.0187 496.148 74.1383 529.348 73.4636C563.275 72.7291 573.917 76.41 584.886 84.8347C589.951 88.7248 600.31 97.1372 612.22 106.809C628.92 120.363 647.842 135.736 660.375 145.33C668.642 151.663 680.85 157.415 692.653 162.983C706.006 169.286 719.816 175.785 727.045 182.754C739.018 194.283 754.882 209.088 759.49 213.375C760.318 214.148 760.903 214.691 760.903 214.691L765.216 210.053C765.208 210.045 745.539 191.768 731.435 178.19C723.458 170.495 709.175 163.761 695.361 157.245L695.355 157.236ZM460.182 114.081C456.083 124.475 454.4 126.089 454.4 126.252C452.953 126.136 444.968 122.571 437.965 119.137C438.08 115.76 438.644 110.832 439.899 109C442.073 105.823 442.534 105.396 444.374 104.888C446.006 104.61 454.115 106.404 461.524 108.304C461.298 109.884 460.87 112.322 460.182 114.081ZM424.735 117.412C424.458 127.204 438.707 145.228 457.214 154.828C471.246 170.995 481.793 183.152 484.608 186.406C492.243 195.224 509.96 212.48 525.145 222.771L130.261 180.138C180.171 171.311 226.767 136.1 237.703 125.881C252.469 112.08 331.937 35.3789 343.667 24.0548C351.196 32.719 389.739 77.1071 424.732 117.413L424.735 117.412ZM487.588 222.535L528.812 254.822L314.246 438.244L83.4135 176.682C92.052 180.051 100.909 182.191 109.769 182.191C110.281 182.191 110.789 182.182 111.302 182.174C111.831 182.161 112.361 182.08 112.886 182.063V182.076L487.588 222.535ZM311.359 440.72L308.639 443.047L65.8799 167.985C69.0484 169.885 72.2638 171.627 75.539 173.229L75.3938 173.357L311.359 440.72ZM61.3196 165.221L307.424 444.076L304.716 446.39L54.491 160.495C56.7329 162.118 59.0003 163.706 61.3233 165.218L61.3196 165.221ZM241.079 6.88667C242.331 8.24033 244.35 10.2985 246.592 12.3995L14.4699 99.9805C12.0017 97.2135 9.97334 94.8691 8.48729 93.1269L241.079 6.88667ZM249.833 15.2391C252.126 17.1564 254.496 18.9413 256.67 19.9704C261.017 22.0329 280.984 37.777 294.781 49.0038C273.435 68.6042 249.273 90.6467 230.809 107.147C187.381 145.954 132.817 169.479 98.1206 164.256C72.2607 160.383 35.6441 123.377 17.2046 103.017L249.833 15.2391ZM470.314 159.996C474.033 160.893 477.487 161.516 480.801 162.028L480.707 162.101C484.456 167.238 516.722 211.26 525.377 218.37C511.738 208.68 495.653 193.359 487.488 183.922C485.037 181.086 476.616 171.375 465.253 158.288C466.936 158.877 468.593 159.582 470.314 159.996ZM345.234 20.049C344.888 19.6561 344.397 19.417 343.88 19.3914C343.41 19.3743 342.851 19.5708 342.471 19.9252C341.557 20.8048 250.957 108.292 235.106 123.097C217.176 139.866 161.082 177.059 111.185 178.369C110.719 178.387 110.25 178.391 109.775 178.391C84.5606 178.391 58.6318 160.605 38.874 142.657L6.6475 105.835L6.52793 100.579C22.1186 118.551 65.7206 165.801 97.1709 170.507C100.766 171.041 104.524 171.302 108.427 171.302C144.822 171.302 193.98 148.524 235.027 111.852C272.702 78.1946 334.056 21.4529 346.988 9.47507L428.037 105.669C426.811 107.399 426.008 109.704 425.44 112.42C387.03 68.1898 345.225 20.0479 345.225 20.0479L345.234 20.049Z" fill="black"></path> <path d="M474.229 112.689C465.262 121.857 465.561 134.723 465.578 135.265L469.383 135.15C469.374 135.026 469.135 123.334 476.954 115.35L474.229 112.689Z" fill="black"></path> <path d="M472.25 137.757L476.055 137.641C476.046 137.518 475.807 125.825 483.617 117.85L480.897 115.185C471.934 124.349 472.237 137.214 472.25 137.757Z" fill="black"></path> <path d="M485.947 137.658L487.988 140.86C495.525 136.061 497.028 123.912 497.088 123.403L493.313 122.955C493.301 123.058 491.955 133.823 485.947 137.658Z" fill="black"></path> </svg> 