<?xml version="1.0" encoding="UTF-8"?> <svg xmlns="http://www.w3.org/2000/svg" width="411" height="534" viewBox="0 0 411 534" fill="none"> <circle cx="286" cy="125" r="125" fill="#6287C5"></circle> <path d="M235.001 274.488H235.007C235.108 274.475 245.71 272.79 247.966 269.404C248.555 268.519 248.523 267.706 248.387 267.187C248.367 267.093 245.989 257.661 244.064 254.099C243.105 252.304 238.465 248.833 230.914 249.974C223.085 251.218 220.055 257.197 220.169 259.365L220.269 261.497C220.745 271.452 221.086 273.322 222.547 274.002C223.62 274.498 226.543 274.838 229.709 274.838C231.494 274.841 233.354 274.734 235.001 274.488ZM224.414 271.099C223.992 269.371 223.74 264.031 223.613 261.348L223.503 259.261C223.565 258.636 225.337 254.245 231.439 253.282C238.173 252.203 241.122 255.693 241.128 255.693C242.535 258.295 244.485 265.392 245.069 267.693C244.11 268.714 239.216 270.473 234.508 271.186C230.536 271.792 225.982 271.432 224.414 271.099Z" fill="black"></path> <path d="M411 265.413L289.295 70.2914L288.433 68.9109L286.12 70.2654L286.103 70.2362L285.241 68.8558L283.106 70.1066L283.048 70.0126L282.179 68.6387L280.637 69.128C212.535 90.8617 162.009 135.636 154.435 142.587C146.561 138.918 103.229 121.297 22.6261 135.616L20.0921 136.064L21.2943 139.038L14.0162 142.356L14.8134 144.281L6.86125 148.209L8.45883 151.935L0.940918 155.691L124.073 435.245L128.545 432.326L129.896 435.482L134.183 432.429L135.842 436.431L140.188 433.337L141.857 437.471L217.966 363.459C217.612 367.999 217.337 370.938 217.327 371.045C210.73 422.785 233.446 463.524 242.023 471.745C250.163 479.539 309.804 531.004 312.339 533.191L315.981 528.978C315.926 528.93 315.252 528.35 314.325 527.549C304.763 519.296 253.2 474.743 245.873 467.724C237.82 460.005 216.524 421.398 222.862 371.677C223.093 369.292 228.449 313.16 222.188 294.738C217.276 280.292 215.568 259.89 221.203 250.772C222.992 247.878 225.377 246.267 228.481 245.84C241.317 244.086 246.47 253.613 250.018 263.772C252.092 269.65 258.683 300.224 258.044 311.083C257.289 323.88 277.452 349.486 289.481 354.064L291.464 348.86C284.393 346.174 272.945 333.439 267.183 322.625C275.141 320.192 295.019 314.819 307.228 317.797L308.22 313.74C306.055 313.218 303.689 312.946 301.217 312.839C304.227 311.4 307.322 309.942 310.517 308.458C312.205 310.247 318.385 318.049 318.787 336.612C318.936 343.345 318.583 351.942 318.21 361.041C317.28 383.533 316.227 409.033 322.186 420.177C338.515 450.738 359.335 471.445 384.021 482.054C385.379 482.637 386.694 483.318 388.075 483.839L390.045 478.635C364.847 469.121 343.664 448.57 327.089 417.555C321.849 407.743 322.908 381.981 323.767 361.274C324.146 352.081 324.509 343.403 324.357 336.491C323.968 318.941 318.764 309.887 315.737 306.047C357.218 287.054 408.557 266.397 409.154 266.157L411 265.413ZM126.875 428.43L125.906 429.062L6.36642 157.646L10.1059 155.779L126.875 428.43ZM11.1845 149.797L16.0939 147.369L132.871 429.271L131.335 430.367L11.1845 149.797ZM18.3395 144.054L22.5489 142.143L138.903 430.167L137.325 431.288L18.3395 144.054ZM218.422 357.194L143.404 430.144L25.8968 139.275C105.113 125.775 147.975 144.164 153.284 146.65L212.508 261.088C211.173 273.113 213.846 287.472 216.918 296.526C220.972 308.451 219.65 339.138 218.425 357.198L218.422 357.194ZM263.597 311.4C264.329 298.917 257.21 267.439 255.055 261.331C252.8 254.863 246.954 237.708 227.715 240.314C222.932 240.971 219.148 243.502 216.467 247.838C215.271 249.772 214.439 252.044 213.761 254.442L157.397 145.529C165.375 138.231 214.407 95.0715 280.355 73.6032L398.799 263.482C357.901 278.994 286.128 313.638 285.299 314.036C276.938 315.417 269.45 317.526 265.393 318.79C264.249 316.016 263.471 313.417 263.591 311.398L263.597 311.4Z" fill="black"></path> <path d="M248.44 280.685L248.984 277.389C235.251 275.066 225.16 282.221 224.738 282.535L226.676 285.254C226.76 285.189 236.168 278.666 248.44 280.685Z" fill="black"></path> <path d="M248.323 286.002L248.867 282.713C236.716 280.639 227.782 286.994 227.406 287.266L229.344 289.985C229.431 289.923 237.594 284.282 248.323 286.002Z" fill="black"></path> <path d="M229.168 300.246L228.89 303.577C229.039 303.59 230.085 303.671 231.722 303.671C236.187 303.671 245.04 303.052 251.903 298.723L250.124 295.897C241.689 301.218 229.301 300.233 229.168 300.246Z" fill="black"></path> </svg> 