<?xml version="1.0" encoding="UTF-8"?> <svg xmlns="http://www.w3.org/2000/svg" width="557" height="516" viewBox="0 0 557 516" fill="none"> <circle cx="189" cy="278" r="125" fill="#6287C5"></circle> <path d="M533.502 145.889L517.167 132.499L522.883 126.39C524.064 125.131 524.078 123.173 522.916 121.898L500.779 97.5732C500.48 97.2493 500.117 96.9829 499.721 96.7958L425.906 62.7123L424.69 61.3877C424.47 61.1465 424.215 60.9413 423.937 60.7829L322.354 0.469731C321.044 -0.31496 319.349 -0.102588 318.297 1.00245L236.672 84.6336C233.936 84.396 229.663 84.558 222.659 85.0259C220.297 85.1807 218.361 85.3751 217.688 85.2851C217.364 85.2599 216.37 84.9683 215.643 84.7595C212.328 83.7984 206.803 82.1823 201.547 84.4608C194.226 87.6463 187.923 101.634 187.34 103.387C186.919 104.55 183.737 108.891 180.908 112.382C173.457 117.789 168.461 132.669 167.921 136.603C167.474 137.978 164.083 142.917 146.413 160.59C142.306 164.477 97.5937 178.959 76.104 185.927C67.674 188.652 60.8711 190.858 57.4515 192.068C43.6147 196.948 3.09561 212.718 2.68095 212.869L5.08903 219.042C5.12503 219.028 5.80893 218.761 6.3885 218.534C12.5797 216.126 47.0918 202.736 59.6469 198.302C63.0413 197.107 69.7905 194.925 78.1372 192.215C122.271 177.917 146.96 169.39 151.092 165.269C169.939 146.415 174.003 140.742 174.439 137.693C174.932 134.22 179.604 121.182 185.017 117.579C185.291 117.392 185.543 117.176 185.744 116.917C187.807 114.397 192.695 108.228 193.616 105.481C194.473 102.886 200.009 92.3394 204.177 90.5287C207.215 89.1861 211.024 90.3091 213.788 91.1118C214.353 91.2738 214.742 91.3134 215.225 91.4357C214.037 95.4024 214.123 97.1266 215.631 97.8681C215.916 98.0121 216.47 98.0697 217.215 98.0697C221.142 98.0697 230.195 96.3635 230.267 96.3419C230.591 96.2375 231.682 95.7552 235.742 92.0297C235.439 94.4665 234.226 98.3972 231.138 100.683L229.23 102.13C223.637 106.428 216.049 112.32 206.917 111.183L206.352 115.678L105.92 218.561C105.225 219.274 104.887 220.267 104.999 221.253L108.386 250.295C96.2086 257.846 27.0547 288.479 6.12992 297.696C2.49084 299.301 0.14034 300.331 0 300.392L2.64924 306.454C6.37116 304.827 88.1344 269 109.218 257.461L119.886 348.913C78.2294 366.591 7.79843 396.773 6.95989 397.14L9.56232 403.216C9.6667 403.172 11.0237 402.593 13.0035 401.743C30.5152 394.246 114.32 358.359 142.913 346.383C173.839 333.422 224.586 296.389 227.101 287.063C227.343 286.174 227.627 284.882 227.983 283.266C230.521 271.611 236.478 244.312 257.625 224.09C285.234 197.694 291.349 160.81 291.414 160.44C292.029 156.52 296.781 151.75 300.661 151.171C303.361 150.767 308.832 148.381 315.858 145.03L315.782 145.167C318.903 146.927 322.661 149.742 323.057 150.976C323.316 151.768 323.921 152.373 324.731 152.643C324.972 152.722 325.263 152.765 325.587 152.765C327.891 152.765 332.261 150.613 338.431 146.549C338.334 147.65 338.168 148.73 337.848 149.655C335.562 156.365 320.987 180.924 313.684 187.22C313.288 187.558 312.971 187.987 312.78 188.473C312.377 189.459 303.051 212.986 322.647 232.001C342.105 250.88 373.652 261.33 381.038 263.09C382.179 263.363 384.245 263.914 386.988 264.648C431.664 276.527 452.83 279.666 459.996 275.487C460.287 275.325 460.554 275.116 460.781 274.864L462.886 272.571C464.009 276.743 465.075 283.514 461.947 288.312C456.566 296.555 450.817 298.286 446.422 298.865L445.338 299.009C410.578 303.779 398.869 301.572 394.999 299.848L392.3 305.892C396.194 307.63 402.475 308.501 411.082 308.501C418.418 308.501 427.529 307.839 438.211 306.572C438.089 310.715 437.898 320.534 438.679 324.792C439.082 326.948 437.75 331.71 435.429 334.604C434.443 335.831 433.69 336.181 433.431 336.188C431.66 336.213 425.656 336.044 418.536 335.817C401.474 335.266 389.175 334.921 386.228 335.526L387.585 342.008C389.719 341.58 403.703 341.969 414.243 342.304C415.269 346.018 415.888 350.374 415.589 351.349L415.103 352.285C411.403 359.542 409.657 360.963 408.952 361.158C407.868 361.424 402.357 361.586 397.926 361.723C381.901 362.198 374.238 362.716 371.192 364.52L374.547 370.232C375.965 369.48 381.437 369.037 387.189 368.745C388.29 372.244 388.899 375.854 388.488 376.751C387.794 377.6 387.048 378.651 386.275 379.742C384.932 381.657 382.679 384.857 381.401 385.228C375.728 386.732 293.829 399.662 280.905 395.126C263.836 389.104 252.966 387.103 248.635 389.097C245.104 390.713 230.216 399.618 225.717 403.667C224.342 404.776 211.315 412.688 196.233 421.852C137.097 457.774 73.7327 496.74 60.4635 510.072C59.6428 510.896 58.9697 511.645 58.5485 512.267L64.0126 516C69.9266 507.325 131.331 469.192 175.76 442.059L203.04 462.919C203.637 463.379 204.35 463.606 205.052 463.606C205.923 463.606 206.798 463.257 207.446 462.58L210.365 459.531L211.049 465.935C211.153 466.914 211.686 467.785 212.503 468.336L220.156 473.436L221.991 470.683L221.927 470.78L220.174 473.447L250.975 493.676C251.533 494.047 252.163 494.227 252.793 494.227C253.682 494.227 254.571 493.863 255.219 493.169L343.889 397.787C364.226 395.037 381.655 392.042 383.225 391.585C386.756 390.566 389.377 386.841 391.688 383.551C392.368 382.597 393.005 381.675 393.61 380.941C396.025 377.997 395.186 372.583 394.038 368.458C395.51 368.408 396.918 368.364 398.127 368.328C405.2 368.12 408.966 367.99 410.607 367.562C415.002 366.413 418.277 360.629 420.998 355.295L421.445 354.424C422.906 351.652 422.042 346.394 421.11 342.52C426.214 342.682 430.523 342.812 432.685 342.812C433.088 342.812 433.42 342.812 433.672 342.794C436.144 342.704 438.538 341.307 440.59 338.737C443.959 334.533 445.982 327.867 445.19 323.584C444.535 320.017 444.711 310.049 444.855 305.734C445.33 305.669 445.752 305.626 446.234 305.561L447.292 305.417C452.641 304.704 460.553 302.53 467.489 291.919C473.5 282.701 469.21 269.974 468.051 266.935L555.983 171.167C557.21 169.824 557.131 167.74 555.789 166.495L533.502 145.889ZM512.633 137.347L527.567 149.582L416.566 265.19C410.811 263.876 404.385 262.299 397.446 260.514L512.633 137.347ZM494.099 101.489L360.043 248.317C357.999 247.388 355.897 246.333 353.769 245.257L489.161 99.2034L494.099 101.489ZM340.784 131.89C340.604 131.714 340.363 131.71 340.172 131.552L410.73 60.6417L418.065 64.9971L344.265 139C343.577 136.217 342.534 133.614 340.784 131.89ZM229.037 92.5728C228.141 92.8319 221.827 93.7534 218.602 94.0666C218.761 93.4151 218.995 92.6304 219.229 91.8709C220.283 91.8205 221.576 91.7341 223.105 91.6261C224.927 91.5001 227.918 91.295 230.726 91.1906C229.955 91.8565 229.242 92.4576 229.037 92.5728ZM220.73 285.271C218.771 290.289 186.854 315.565 157.663 331.723L226.745 262.454C223.973 270.621 222.436 277.59 221.504 281.852C221.184 283.342 220.931 284.523 220.73 285.271ZM230.265 253.293L146.076 337.709C144.136 338.627 142.218 339.494 140.357 340.275C137.229 341.585 133.284 343.248 128.986 345.066L255.91 216.17C254.923 217.207 254.103 218.305 253.048 219.313C242.127 229.755 235.025 242.069 230.266 253.296L230.265 253.293ZM299.67 144.624C292.979 145.636 285.924 152.683 284.866 159.407C284.834 159.645 281.936 176.033 271.879 194.297L125.825 342.617L111.754 222.052L213.872 117.446C221.953 115.963 228.547 110.996 233.252 107.385L235.077 106.003C239.554 102.681 241.786 97.1773 242.384 93.1275C242.657 91.2449 242.495 89.7728 242.135 88.495L321.206 7.48454L407.209 58.5471L336.493 129.619C335.021 129.342 333.455 129.443 331.832 130.026C330.5 130.501 327.556 131.948 322.459 134.454C315.105 138.082 302.787 144.154 299.667 144.622L299.67 144.624ZM319.943 143.058C321.725 142.191 323.467 141.348 325.396 140.395C329.323 138.455 333.034 136.63 334.085 136.248C335.118 135.859 335.611 136.086 336.148 136.604C337.181 137.623 337.883 139.639 338.243 141.881C333.481 145.099 328.412 148.116 326.35 148.713C325.069 146.586 322.153 144.469 319.943 143.058ZM318.654 191.634C327.077 183.754 341.583 159.177 344.103 151.798C344.873 149.556 345.074 146.756 344.966 143.923L421.247 67.433L438.478 86.1684L317.93 211.424C315.555 202.113 317.837 193.996 318.658 191.634L318.654 191.634ZM320.609 218.191L445.413 88.5117C446.626 87.2518 446.651 85.2613 445.471 83.9763L437.566 75.3807L485.364 97.449L350.101 243.355C342.013 238.982 333.824 233.615 327.247 227.237C324.217 224.303 322.183 221.24 320.606 218.188L320.609 218.191ZM382.563 256.651C379.766 255.982 372.55 253.667 363.889 249.974L497.429 103.718L515.962 124.084L390.135 258.619C389.627 258.486 389.192 258.378 388.681 258.241C385.859 257.496 383.735 256.928 382.562 256.654L382.563 256.651ZM456.285 269.955C452.332 271.716 440.408 270.402 421.096 266.187L530.557 152.191L548.861 169.134L456.285 269.955ZM333.609 399.128L252.27 486.624L226.005 469.375L290.141 402.568C301.282 402.647 317.602 401.111 333.609 399.128ZM284.843 402.363L222.64 467.154L217.46 463.706L216.344 453.3L269.051 398.253C271.891 399.098 275.009 400.085 278.695 401.381C280.124 401.884 282.323 402.173 284.843 402.363ZM199.667 427.524C221.643 414.167 228.848 409.761 230.087 408.653C233.766 405.337 247.962 396.698 251.389 395.125C252.134 394.798 255.186 394.744 261.78 396.277L204.71 455.882L181.816 438.381C188.317 434.418 194.36 430.747 199.666 427.525L199.667 427.524Z" fill="black"></path> </svg> 