<?xml version="1.0" encoding="UTF-8"?> <svg xmlns="http://www.w3.org/2000/svg" width="482" height="466" viewBox="0 0 482 466" fill="none"> <circle cx="180" cy="206" r="125" fill="#6287C5"></circle> <path d="M447.147 272.75C444.662 271.91 442.131 271.21 439.561 270.491C428.657 267.455 417.374 264.315 404.843 249.383C388.734 230.186 350.879 178.161 341.993 160.777C340.535 157.932 339.223 155.103 337.956 152.378C331.381 138.25 325.14 124.973 306.067 126.733C296.199 127.685 290.305 128.765 286.41 129.477C282.586 130.171 281.313 130.375 280.503 129.951C278.691 128.995 263.73 123.81 249.148 118.849C251.876 115.307 254.631 111.515 256.384 108.505C261.319 100.018 257.077 88.4658 249.99 83.7962C247.226 81.9653 244.41 81.8746 241.944 82.4903C243.506 80.2414 245.295 77.5551 247.122 74.4085C252.252 65.5944 245.969 53.9581 239.196 49.5026C234.3 46.2588 228.49 48.3327 225.143 50.0599L208.529 0.471191L15.8134 63.2682L18.7719 71.3046L9.29002 74.746L29.6243 124.782C26.7208 129.808 22.0383 139.413 14.0865 158.019C11.316 160.096 1.06989 168.745 2.3947 182.326C3.85937 197.18 18.2767 214.594 21.8313 217.372C23.0983 218.357 23.6298 221.209 24.1905 224.225C24.602 226.439 25.0751 228.95 25.9436 231.299C28.0823 237.074 39.3783 258.066 39.8645 258.964C52.2009 281.738 49.5181 295.636 46.4265 304.117C41.2223 318.381 0.408145 408.301 0 409.206L4.70843 411.338C4.77972 411.182 5.00655 410.68 5.20423 410.246C9.72791 400.278 46.2319 319.732 51.2839 305.879C56.7409 290.917 54.5536 275.224 44.4108 256.503C44.2909 256.289 32.8003 234.934 30.7878 229.497C30.0684 227.559 29.6633 225.381 29.268 223.275C28.5227 219.266 27.8163 215.482 25.01 213.291C22.0385 210.968 8.80453 194.694 7.54359 181.817C6.34463 169.6 17.5083 161.914 17.6211 161.839C18.0391 161.56 18.3664 161.165 18.5608 160.708C20.0547 157.205 21.6166 153.634 23.1688 150.148C24.9964 154.714 26.6102 157.62 27.9745 158.722C28.6874 159.289 29.7859 159.847 31.3867 159.847C32.1061 159.847 32.926 159.733 33.8592 159.461C36.2313 158.755 38.101 156.898 38.856 154.484L43.0654 141.146L43.0718 141.14C43.5514 139.6 43.1853 137.928 42.1127 136.784C40.7614 135.326 39.8217 132.941 38.9143 130.644C38.4866 129.565 38.0686 128.518 37.6214 127.565C37.0899 126.444 36.3414 125.624 35.5701 124.843C35.6997 124.655 35.8715 124.351 35.9817 124.215C38.6939 124.234 47.6055 126.007 52.6666 136.272C58.9402 149.01 64.1187 166.862 48.3503 192.067L52.7282 194.805C53.9467 192.858 54.8021 191.04 55.7969 189.173L123.325 355.285L124.475 358.412C115.056 374.546 93.9632 441.443 88.4441 459.187C87.7279 461.488 87.2354 463.092 87.1058 463.51L92.0539 465.023C92.3099 464.19 115.849 387.656 127.074 364.513L130.117 371.996L242.423 311.509C244.147 312.134 245.777 312.611 247.173 312.734C253.823 313.32 259.296 315.346 265.08 317.497C272.815 320.375 280.806 323.385 291.98 322.899C311.864 322.121 339.281 323.839 350.96 328.661C360.828 332.731 402.461 378.467 417.675 395.748L421.551 392.33C421.052 391.762 420.102 390.69 418.971 389.413C407.235 376.182 364.583 328.69 352.931 323.878C338.974 318.136 308.711 317.044 291.779 317.737C281.666 318.097 274.485 315.478 266.879 312.653C261.03 310.482 254.973 308.23 247.628 307.585C241.584 307.053 228.534 298.226 219.004 291.777C213.648 288.154 209.017 285.018 206.182 283.676L203.032 282.218C194.546 278.326 176.898 270.222 174.38 263.08C172.4 257.471 174.208 250.309 175.407 245.569C176.114 242.772 176.545 241.087 176.279 239.739C176.152 239.114 175.686 237.662 175.054 235.75C174.791 234.95 174.623 234.347 174.383 233.602L176.985 228.475C177.692 227.429 178.045 226.152 177.977 224.891L177.384 213.602C177.384 213.579 177.355 213.566 177.355 213.54C178.032 213.372 178.605 213.339 178.968 213.469C183.466 215.073 200.877 223.787 203.881 237.208C204.075 238.054 204.681 238.754 205.495 239.062C209.555 240.579 219.782 244.875 225.612 248.92C222.4 249.72 219.523 250.281 217.488 250.598L217.967 253.664C219.166 253.473 245.557 249.124 251.646 238.275C278.532 243.391 312.706 248.845 353.699 253.363C345.396 257.556 323.108 258.266 305.538 252.679C283.555 245.686 257.784 243.54 257.524 243.525C256.426 243.473 255.525 244.238 255.434 245.297C255.347 246.363 256.14 247.297 257.207 247.387C257.459 247.407 282.806 249.526 304.362 256.38C311.588 258.68 319.405 259.708 326.939 260.145L326.877 260.33C334.832 263.075 342.205 264.079 348.355 264.079C355.322 264.079 360.724 262.793 363.638 261.296C367.199 259.455 368.719 256.584 369.435 254.588C369.61 254.588 369.83 254.62 370.005 254.62C383.479 254.62 391.794 251.224 394.39 244.685C396.788 247.721 398.995 250.456 400.881 252.701C414.448 268.861 427.054 272.378 438.172 275.469C440.657 276.162 443.094 276.84 445.492 277.646C454.073 280.537 460.327 287.151 464.076 297.303C464.617 298.781 466.594 301.697 476.183 311.312C476.666 311.795 477.074 312.213 477.592 312.731L481.241 309.06C470.654 298.547 469.138 296.036 468.924 295.518C464.611 283.813 457.287 276.152 447.151 272.747L447.147 272.75ZM174.877 225.056C174.909 225.649 174.737 226.249 174.31 226.907L171.74 231.997L168.056 222.684C167.997 222.451 167.994 222.224 168.03 222.016C168.208 221.025 168.736 219.025 170.36 216.78C171.526 215.16 173.085 214.469 174.303 214.181L174.877 225.056ZM236.368 53.8181C241.196 56.997 246.167 65.7953 242.664 71.8097C240.127 76.1713 237.612 79.765 235.898 82.0979L226.822 55.0301C228.993 53.7987 233.338 51.8252 236.368 53.8181ZM247.156 88.1122C251.611 91.0449 255.681 99.4374 251.919 105.906C250.604 108.167 248.614 110.974 246.514 113.767L238.565 90.0597C239.667 89.1038 243.77 85.8926 247.156 88.1122ZM36.0155 131.785C37.0298 134.354 38.0797 137.008 39.8328 138.901C40.1472 139.234 40.2509 139.733 40.105 140.213L35.8957 153.551C35.442 154.983 34.3499 156.081 32.9728 156.483C32.0201 156.762 30.7207 156.956 29.9073 156.305C28.9611 155.54 27.0233 152.109 24.4439 144.759C24.0907 143.761 24.1652 142.646 24.6513 141.7L32.4058 126.651L31.0285 125.938L33.0214 126.492C33.7278 127.079 34.3273 127.886 34.8069 128.89C35.2314 129.785 35.617 130.777 36.0155 131.785ZM34.5573 119.153C34.0421 119.237 33.4005 119.37 32.2015 120.844L14.3883 77.0202L20.1013 74.9463L36.3491 119.072C35.6816 119.055 35.0564 119.072 34.5573 119.153ZM57.2857 133.994C52.9791 125.248 46.1223 121.276 40.7492 119.807L20.8364 65.7074L206.069 5.34679L243.481 116.931C231.767 112.962 221.491 109.533 220.204 109.131C217.586 108.305 212.505 108.772 207.534 111.704C203.438 114.122 198.156 118.953 196.303 128.085C196.202 128.451 186.277 164.903 179.002 175.373C171.614 185.989 167.463 192.369 166.614 196.728C149.776 196.673 147.592 197.839 146.902 198.27C146.526 198.5 146.399 198.776 146.111 199.025L139.863 199.288C137.815 199.375 137.203 202.117 139.018 203.066L144.504 205.937C144.854 206.712 145.226 207.224 145.243 207.234C145.862 208.202 147.88 211.103 166.225 217.309C166.15 217.62 166.063 217.921 166.021 218.271C165.45 219.603 165.094 220.766 164.967 221.473C164.86 222.085 164.873 222.723 165.087 223.592L168.652 232.632C169.125 234.172 169.556 235.636 170.129 237.37C170.667 238.99 171.082 240.222 171.17 240.614C171.183 241.119 170.742 242.879 170.382 244.298C169.031 249.642 166.986 257.721 169.491 264.801C172.482 273.294 187.249 280.67 200.859 286.91L203.944 288.343C206.429 289.522 210.904 292.552 216.089 296.058C221.737 299.879 227.761 303.946 233.296 307.118L128.97 358.904L126.851 353.69L61.4714 176.098C66.9479 158.233 62.4695 144.516 57.2815 133.991L57.2857 133.994ZM237.865 309.563L132.071 366.541L130.434 362.513L237.481 309.382C237.614 309.45 237.737 309.498 237.867 309.563L237.865 309.563ZM58.1733 184.747C58.6723 183.662 58.9445 182.667 59.3723 181.607L83.1152 246.099L58.1733 184.747ZM180.683 208.607C177.242 207.372 172.226 209.394 168.907 212.771C151.885 207.09 149.659 204.524 149.442 204.226C149.328 204.08 149.014 203.493 149.063 203.198C149.089 203.072 149.302 202.871 149.461 202.758C150.362 202.404 155.408 201.766 167.834 201.902C169.069 203.86 170.812 205.603 172.99 206.501C174.941 207.294 176.794 207.379 178.392 206.701C180.274 205.901 187.417 203.766 192.08 202.761C205.164 203.497 225.155 205.026 250.849 208.075C247.9 210.645 245.768 213.652 244.692 217.194C243.014 222.712 244.063 228.104 245.285 231.798C226.105 228.01 211.049 224.514 200.651 221.879C192.232 213.182 180.848 208.665 180.683 208.607ZM224.248 166.5C229.828 168.509 238.416 171.416 243.124 172.093C238.076 172.628 229.304 173.393 224.822 172.806C224.09 172.738 223.497 173.085 223.212 173.691C221.06 178.321 214.505 190.917 210.017 193.587C209.651 193.807 209.385 194.173 209.297 194.591C209.291 194.617 208.769 196.714 207.447 198.613C205.607 198.474 203.899 198.354 202.204 198.237C207.366 193.007 212.907 184.031 214.194 180.041C216.631 177.459 222.097 171.377 224.248 166.5ZM358.015 248.676C317.088 244.275 282.865 238.896 255.739 233.815C254.715 231.702 252.171 225.542 254.066 219.304C255.295 215.286 258.383 212.052 263.023 209.589C265.285 209.881 267.485 210.153 269.822 210.471C332.606 218.945 353.649 223.929 363.77 226.319C363.935 226.358 364.032 226.378 364.191 226.417C361.035 229.945 357.078 236.961 358.018 248.675L358.015 248.676ZM257.116 203.617C250.881 202.846 245.045 202.185 239.452 201.579C240.168 198.656 241.01 195.804 241.467 195.179C242.06 194.392 246.383 191.592 250.159 189.375C251.562 189.294 252.654 189.191 253.542 189.077C255.34 191.624 257.216 193.941 259.08 195.772C258.114 198.53 257.398 201.21 257.116 203.617ZM236.334 201.239C235.618 201.164 234.86 201.077 234.153 201.005C237.199 197.139 238.551 191.656 239.05 188.987C240.923 189.226 242.588 189.304 244.222 189.372C241.931 190.837 239.627 192.431 238.956 193.352C238.016 194.651 236.96 198.627 236.334 201.239ZM238.003 185.701C237.611 185.607 237.17 185.74 236.83 185.999C236.496 186.252 236.276 186.631 236.224 187.046C236.211 187.153 234.902 196.793 230.132 200.611C223.103 199.914 216.687 199.34 210.906 198.88C211.538 197.672 211.969 196.557 212.163 195.886C217.507 192.124 223.699 179.852 225.553 175.996C231.175 176.459 240.674 175.51 245.029 175.014C246.604 177.989 248.914 182.101 251.558 186.164C248.535 186.446 243.843 186.628 238.003 185.701ZM227.2 243.787C221.001 239.824 212.472 236.266 208.943 234.869C210.709 233.012 211.979 231.337 212.595 230.089C217.462 231.227 222.951 232.442 228.927 233.719C229.245 236 229.39 240.258 227.2 243.787ZM207.416 232.037C206.917 230.835 206.493 229.594 205.841 228.482C207.092 228.787 208.09 229.046 209.435 229.367C209.007 230.102 208.32 231.01 207.416 232.037ZM229.753 245.543C230.469 244.422 231.036 243.268 231.406 242.098C232.433 243.437 233.347 245.08 233.412 246.603C232.838 246.797 232.268 247.001 231.691 247.186C231.121 246.638 230.476 246.091 229.753 245.543ZM236.318 245.569C235.712 242.102 233.088 239.117 232.132 238.181C232.245 236.768 232.232 235.481 232.128 234.393C237.226 235.465 242.686 236.557 248.522 237.685C246.257 240.87 241.61 243.518 236.318 245.569ZM361.856 257.856C358.778 259.448 351.947 260.731 343.204 259.924C349.124 259.211 354.076 257.941 356.924 256.12C357.926 255.478 358.697 254.775 359.254 254.013C359.342 254.023 359.419 254.033 359.507 254.042C361.61 254.256 363.421 254.269 365.35 254.366C364.714 255.559 363.667 256.923 361.856 257.856ZM389.704 242.662C387.663 248.2 377.206 250.443 361.13 248.991C359.928 236.201 365.048 229.635 367.692 227.225C367.721 227.231 367.76 227.241 367.789 227.247C374.97 228.8 386.403 233.388 389.339 238.719C390.074 240.07 390.194 241.317 389.704 242.662ZM368.881 222.199C367.756 221.952 366.489 221.657 364.963 221.291C354.765 218.88 333.56 213.851 270.526 205.345C267.671 204.959 264.968 204.622 262.227 204.269C262.995 197.149 269.511 184.612 272.236 179.958L267.768 177.347C267.139 178.426 263.928 184.051 261.154 190.461C254.75 183.154 248.143 169.797 247.631 168.753C248.224 167.279 248.691 164.965 248.347 161.303L245.129 161.605C245.392 164.385 245.11 166.089 244.783 167.126C242.825 167.512 232.164 163.931 223.464 160.71C223.298 160.649 223.133 160.794 222.961 160.768C220.952 157.625 216.267 150.023 215.275 145.933C213.869 140.123 211.824 137.379 211.736 137.262L209.157 139.206C209.176 139.232 210.904 141.611 212.135 146.689C213.253 151.309 218.172 159.285 220.259 162.537C220.21 162.719 220 162.816 219.99 163.007C219.876 165.318 214.727 172.039 210.025 176.935C209.678 177.301 209.439 177.755 209.351 178.247C208.479 182.816 198.427 196.128 196.062 197.077C192.345 196.831 178.822 200.908 176.385 201.948C176.239 202.006 175.76 202.042 174.972 201.721C173.547 201.134 172.182 199.816 171.654 198.529C170.954 196.018 178.961 184.514 183.258 178.337C191.051 167.138 200.896 130.981 201.343 129.29C202.863 121.856 206.991 118.052 210.183 116.166C213.761 114.047 217.383 113.668 218.683 114.076C223.647 115.622 275.183 133.033 278.104 134.533C280.54 135.819 282.806 135.392 287.355 134.578C291.159 133.878 296.921 132.825 306.567 131.895C322.015 130.395 326.739 140.547 333.279 154.572C334.572 157.349 335.916 160.233 337.4 163.133C343.502 175.077 362.981 203.007 379.974 225.82C375.836 224.054 371.727 222.813 368.882 222.197L368.881 222.199Z" fill="black"></path> </svg> 